<svg xmlns="http://www.w3.org/2000/svg" xmlns:xlink="http://www.w3.org/1999/xlink" viewBox="0 0 128 128"><path fill="#70e9d4" d="M112.4,70.5L112.4,70.5l0-0.1c-0.3-1-0.7-2-1.1-3l-1-2.6c-3.2-8.4-5.4-17-6.8-25.9l-0.7-4.2c-0.1-1.3-0.3-2.6-0.6-3.8l0-0.3h0C99.7,21.1,91,14,80.7,14c-10.4,0-19,7.1-21.5,16.7h0l0,0.3c-0.3,1.2-0.5,2.5-0.6,3.8L57.9,39c-1.4,8.8-3.6,17.5-6.8,25.9l-1,2.6c-0.4,1-0.8,2-1.1,3l0,0.1h0c-1,3.2-1.6,6.6-1.6,10.2c0,18.4,14.9,33.3,33.3,33.3S114,99.1,114,80.7C114,77.1,113.4,73.7,112.4,70.5z"/><path fill="#009f96" d="M110.7,80.7c0-3-0.5-6-1.3-8.9c-0.5-1.6-2-2.7-3.6-2.5c-2.1,0.3-3.4,2.4-2.8,4.3c0.7,2.3,1.1,4.7,1.1,7.1c0,5.5-1.9,10.6-5.1,14.6c-3.8,4.7-7.9,0.6-6.2-5.1c0.9-3,1.4-6.2,1.4-9.4c0-3.5-0.6-7-1.6-10.2h0l-0.1-0.1c-0.3-1-0.7-2-1.1-3l-1-2.6c-3.2-8.4-8.8-17-10.1-25.9l-0.7-4.2c-0.1-1.3-0.3-2.6-0.6-3.8l0-0.3h0c-1.4-5.6-5-10.4-9.8-13.3c0,0,0,0,0,0c-2.4,1.5-4.4,3.4-6.1,5.6c-0.1,0.1-0.1,0.2-0.2,0.3c-0.3,0.4-0.6,0.9-0.9,1.3c-0.2,0.3-0.4,0.6-0.5,0.9c-0.2,0.3-0.3,0.6-0.5,1c-0.1,0.2-0.2,0.3-0.2,0.5c-0.2,0.4-0.4,0.9-0.6,1.3c-0.1,0.2-0.2,0.4-0.2,0.6c-0.2,0.6-0.4,1.3-0.6,1.9h0l0,0.3c-0.3,1.2-0.5,2.5-0.6,3.8L57.9,39c-1.4,8.8-3.6,17.5-6.8,25.9l-1,2.6c-0.4,1-0.8,2-1.1,3l0,0.1h0c-1,3.2-1.6,6.6-1.6,10.2c0,0.8,0,1.6,0.1,2.4c0,0.2,0,0.4,0,0.5c0.1,0.8,0.2,1.5,0.3,2.3c0,0.1,0,0.2,0,0.3c0.1,0.7,0.3,1.4,0.4,2.1c0,0.2,0.1,0.3,0.1,0.5c0.2,0.7,0.4,1.5,0.6,2.2c0,0.1,0.1,0.2,0.1,0.4c0.2,0.7,0.5,1.3,0.7,1.9c0,0.1,0.1,0.2,0.1,0.3c0.3,0.7,0.6,1.4,0.9,2c0.1,0.1,0.1,0.2,0.2,0.4c0.3,0.6,0.7,1.2,1,1.9c0,0.1,0.1,0.1,0.1,0.2c0.4,0.6,0.8,1.3,1.2,1.9c0.1,0.1,0.2,0.2,0.2,0.3c0.9,1.2,1.9,2.4,2.9,3.5c0.1,0.1,0.2,0.2,0.2,0.3c1.1,1.1,2.2,2.2,3.5,3.1c0.1,0.1,0.1,0.1,0.2,0.2c0.6,0.5,1.3,0.9,1.9,1.4c0,0,0.1,0,0.1,0.1c0.6,0.4,1.3,0.8,2,1.2c0,0,0.1,0.1,0.1,0.1c0.7,0.4,1.4,0.7,2.1,1.1c0.1,0,0.1,0.1,0.2,0.1c0.7,0.3,1.5,0.6,2.2,0.9c0,0,0,0,0,0c0.1,0,0.2,0,0.3,0.1c3.5,1.3,7.4,2,11.4,2c0.5,0,1,0,1.5,0c0.3-1.3,0.6-2.5,0.8-3.4C98.5,109.4,110.7,96.4,110.7,80.7z"/><path fill="#444b54" d="M80.7,117c-1.7,0-3.3-0.1-4.9-0.3c-1.6-0.2-2.8-1.7-2.6-3.4c0.2-1.6,1.7-2.8,3.4-2.6c1.4,0.2,2.8,0.3,4.1,0.3c16.7,0,30.3-13.6,30.3-30.3c0-3.2-0.5-6.3-1.4-9.3c0,0,0,0,0,0c0,0,0-0.1,0-0.1c-0.3-0.9-0.6-1.8-1-2.7c0,0,0-0.1-0.1-0.1l-1-2.6c-3.2-8.5-5.6-17.5-7-26.5l-0.7-4.2c0-0.1,0-0.2,0-0.3c-0.1-1.1-0.2-2.2-0.5-3.3c0,0,0-0.1,0-0.1c0,0,0-0.1,0-0.1C97.1,22.9,89.4,17,80.7,17c-2.7,0-5.3,0.5-7.7,1.6c-1.5,0.7-3.3,0-4-1.5c-0.7-1.5,0-3.3,1.5-4c3.2-1.4,6.6-2.1,10.1-2.1C92,11,102,18.6,105,29.5c0.1,0.2,0.2,0.4,0.2,0.7l0,0.1c0.3,1.3,0.5,2.7,0.6,4l0.6,4.1c1.3,8.6,3.6,17.1,6.7,25.3l0.9,2.5c0.4,1,0.8,2,1.2,3.1l0,0.1c0,0.1,0.1,0.2,0.1,0.3c1.1,3.5,1.7,7.2,1.7,10.9C117,100.7,100.7,117,80.7,117z"/><path fill="#f5ff93" d="M79.1,70.5L79.1,70.5l0-0.1c-0.3-1-0.7-2-1.1-3l-1-2.6c-3.2-8.4-5.4-17-6.8-25.9l-0.7-4.2c-0.1-1.3-0.3-2.6-0.6-3.8l0-0.3h0C66.4,21.1,57.7,14,47.3,14c-10.4,0-19,7.1-21.5,16.7h0l0,0.3c-0.3,1.2-0.5,2.5-0.6,3.8L24.5,39c-1.4,8.8-3.6,17.5-6.8,25.9l-1,2.6c-0.4,1-0.8,2-1.1,3l0,0.1h0c-1,3.2-1.6,6.6-1.6,10.2C14,99.1,28.9,114,47.3,114s33.3-14.9,33.3-33.3C80.7,77.1,80.1,73.7,79.1,70.5z"/><path fill="#feffe1" d="M47.3,102.9c-12.3,0-22.2-10-22.2-22.2c0-2.3,0.4-4.6,1.1-6.8l0-0.1c0.2-0.7,0.5-1.4,0.8-2l0.1-0.2l1.1-2.8c3.4-9.1,5.9-18.5,7.4-28.1l0.7-4.7l0-0.5c0-0.6,0.1-1.3,0.3-1.9l0-0.2c1.3-4.9,5.7-8.3,10.7-8.3s9.5,3.4,10.7,8.3l0,0.2c0.1,0.6,0.2,1.2,0.3,1.8l0,0.5l0.7,4.7c1.5,9.6,4,19,7.4,28.1l1.1,2.8l0.1,0.2c0.3,0.6,0.5,1.3,0.7,2l0.1,0.3c0.7,2.1,1,4.4,1,6.6C69.6,92.9,59.6,102.9,47.3,102.9z"/><path fill="#444b54" d="M47.3,117c-20,0-36.3-16.3-36.3-36.3c0-3.7,0.6-7.4,1.7-10.9c0-0.1,0.1-0.2,0.1-0.3l0,0c0.3-1.1,0.7-2.1,1.2-3.1l0.9-2.5c3.1-8.2,5.3-16.7,6.7-25.3l0.6-4.1c0.1-1.4,0.3-2.7,0.6-4l0-0.1c0-0.2,0.1-0.5,0.2-0.7C26.1,18.6,36,11,47.3,11c11.4,0,21.3,7.6,24.3,18.5c0.1,0.2,0.2,0.4,0.2,0.7l0,0.1c0.3,1.3,0.5,2.7,0.6,4l0.6,4.1c1.3,8.6,3.6,17.1,6.7,25.3l0.9,2.5c0.4,1,0.8,2,1.2,3.1l0,0.1c0,0.1,0.1,0.2,0.1,0.3c1.1,3.5,1.7,7.2,1.7,10.9C83.7,100.7,67.4,117,47.3,117z M18.4,71.4C18.4,71.4,18.4,71.4,18.4,71.4c-1,3-1.4,6.1-1.4,9.3C17,97.4,30.6,111,47.3,111c16.7,0,30.3-13.6,30.3-30.3c0-3.2-0.5-6.3-1.4-9.3c0,0,0,0,0,0c0,0,0-0.1,0-0.1c-0.3-0.9-0.6-1.8-1-2.7c0,0,0-0.1-0.1-0.1l-1-2.6c-3.2-8.5-5.6-17.5-7-26.5l-0.7-4.2c0-0.1,0-0.2,0-0.3c-0.1-1.1-0.2-2.2-0.5-3.3c0,0,0-0.1,0-0.1c0,0,0-0.1,0-0.1C63.7,22.9,56.1,17,47.3,17s-16.4,5.9-18.6,14.4c0,0,0,0.1,0,0.1c0,0,0,0.1,0,0.1c-0.3,1.1-0.4,2.2-0.5,3.3c0,0.1,0,0.2,0,0.3l-0.7,4.2c-1.4,9-3.7,17.9-7,26.5l-1,2.6c0,0,0,0.1-0.1,0.1C19.1,69.5,18.8,70.4,18.4,71.4C18.5,71.3,18.5,71.4,18.4,71.4z"/><path fill="#ba7879" d="M47.3 64A16.7 16.7 0 1 0 47.3 97.4A16.7 16.7 0 1 0 47.3 64Z"/><path fill="#e0a0a3" d="M47.3,69.6C47.3,69.5,47.3,69.5,47.3,69.6c0-3.4-3.5-5.5-6.6-4.2c-5.9,2.5-10.1,8.4-10.1,15.3c0,0,0,0,0,0.1c0,3.3,3.5,5.4,6.6,4.1C43.2,82.3,47.3,76.4,47.3,69.6z"/><path fill="#825559" d="M47.3,97c-1.7,0-3-1.3-3-3s1.3-3,3-3c5.7,0,10.3-4.6,10.3-10.3c0-1.7,1.3-3,3-3s3,1.3,3,3C63.7,89.7,56.3,97,47.3,97z"/></svg>