<svg xmlns="http://www.w3.org/2000/svg" xmlns:xlink="http://www.w3.org/1999/xlink" viewBox="0 0 64 64"><radialGradient id="ssvauQyuLGaj9Eb0IP0O5a" cx="32" cy="31.5" r="30.775" gradientUnits="userSpaceOnUse" spreadMethod="reflect"><stop offset="0" stop-color="#afeeff"/><stop offset=".193" stop-color="#bbf1ff"/><stop offset=".703" stop-color="#d7f8ff"/><stop offset="1" stop-color="#e1faff"/></radialGradient><path fill="url(#ssvauQyuLGaj9Eb0IP0O5a)" d="M59,20h1.5c2.168,0,3.892-1.998,3.422-4.243C63.58,14.122,62.056,13,60.385,13L53,13 c-1.105,0-2-0.895-2-2c0-1.105,0.895-2,2-2h3.385c1.67,0,3.195-1.122,3.537-2.757C60.392,3.998,58.668,2,56.5,2h-47 C7.575,2,6,3.575,6,5.5S7.575,9,9.5,9H11c1.105,0,2,0.895,2,2c0,1.105-0.895,2-2,2l-5.385,0c-1.67,0-3.195,1.122-3.537,2.757 C1.608,18.002,3.332,20,5.5,20H18v12L3.615,32c-1.67,0-3.195,1.122-3.537,2.757C-0.392,37.002,1.332,39,3.5,39H4 c1.105,0,2,0.895,2,2c0,1.105-0.895,2-2,2H3.5c-2.168,0-3.892,1.998-3.422,4.243C0.42,48.878,1.945,50,3.615,50H9 c1.105,0,2,0.895,2,2c0,1.105-0.895,2-2,2l-1.385,0c-1.67,0-3.195,1.122-3.537,2.757C3.608,59.002,5.332,61,7.5,61h46 c1.925,0,3.5-1.575,3.5-3.5S55.425,54,53.5,54H53c-1.105,0-2-0.895-2-2c0-1.105,0.895-2,2-2h4.385c1.67,0,3.195-1.122,3.537-2.757 C61.392,44.998,59.668,43,57.5,43H47V31h12.385c1.67,0,3.195-1.122,3.537-2.757C63.392,25.998,61.668,24,59.5,24H59 c-1.105,0-2-0.895-2-2C57,20.895,57.895,20,59,20z"/><linearGradient id="ssvauQyuLGaj9Eb0IP0O5b" x1="27.5" x2="27.5" y1="34.771" y2="-6.229" gradientUnits="userSpaceOnUse" spreadMethod="reflect"><stop offset="0" stop-color="#31995f"/><stop offset=".093" stop-color="#329e62"/><stop offset=".666" stop-color="#39ba71"/><stop offset="1" stop-color="#3bc477"/></linearGradient><path fill="url(#ssvauQyuLGaj9Eb0IP0O5b)" d="M27.5 12A20.5 20.5 0 1 0 27.5 53A20.5 20.5 0 1 0 27.5 12Z"/><linearGradient id="ssvauQyuLGaj9Eb0IP0O5c" x1="19.579" x2="23.133" y1="9.015" y2="38.595" gradientUnits="userSpaceOnUse" spreadMethod="reflect"><stop offset="0" stop-color="#42d778"/><stop offset=".996" stop-color="#34b171"/></linearGradient><path fill="url(#ssvauQyuLGaj9Eb0IP0O5c)" d="M33.89,30.82C35.24,33.6,36,36.71,36,40c0,4.7-1.54,9.03-4.14,12.53 c-1.473,0.326-3.013,0.486-4.595,0.469C16.898,52.883,8.078,44.824,7.096,34.503C6.54,28.667,8.443,23.278,11.88,19.23 c1.912-2.248,4.298-4.08,7.009-5.332c1.122-0.518,2.178-1.172,3.059-2.037C23.119,10.711,24.729,10,26.5,10 c2.04,0,3.86,0.94,5.05,2.41C32.46,13.53,33,14.95,33,16.5c0,0.007,0,0.015,0,0.022c-0.004,1.144,0.417,2.258,1.317,2.964 C35.952,20.767,37,22.76,37,25C37,27.43,35.77,29.56,33.89,30.82z"/><linearGradient id="ssvauQyuLGaj9Eb0IP0O5d" x1="44.002" x2="44.002" y1="55.21" y2="30.21" gradientUnits="userSpaceOnUse" spreadMethod="reflect"><stop offset="0" stop-color="#31995f"/><stop offset=".093" stop-color="#329e62"/><stop offset=".666" stop-color="#39ba71"/><stop offset="1" stop-color="#3bc477"/></linearGradient><path fill="url(#ssvauQyuLGaj9Eb0IP0O5d)" d="M57.857,31.824c0.279,0.411,0.142,0.961-0.274,1.234c-1.423,0.936-2.33,2.7-2.664,5.022 c-0.075,0.53-0.12,1.088-0.135,1.67c-0.071,2.751-0.839,5.479-2.573,7.616c-4.01,4.943-11.71,6.766-18.875,1.27 C25.491,38.345,32.679,27,42.5,27c1.72,0,3.359,0.346,4.85,0.972c1.561,0.656,3.232,1.088,4.924,1.026 c0.786-0.029,1.591,0.086,2.376,0.361C56.011,29.835,57.107,30.719,57.857,31.824z"/><linearGradient id="ssvauQyuLGaj9Eb0IP0O5e" x1="29.509" x2="29.509" y1="15.261" y2="54.261" gradientUnits="userSpaceOnUse" spreadMethod="reflect"><stop offset="0" stop-color="#62de8f"/><stop offset=".478" stop-color="#5dd18d"/><stop offset="1" stop-color="#56be89"/></linearGradient><path fill="url(#ssvauQyuLGaj9Eb0IP0O5e)" d="M47.99,31.82c0.055-3.583,1.258-6.147,3.091-7.455c0.931-0.664,1.263-1.937,0.563-2.841 C50.456,19.989,48.591,19,46.5,19c-1.07,0-2.08,0.26-2.97,0.72c-1.209,0.617-2.198,1.602-2.814,2.81 c-0.177,0.347-0.556,0.554-0.943,0.512c-1.04-0.115-2.176,0.008-3.406,0.359c-2.831,0.807-4.448,3.573-4.368,6.516 c0.051,1.882-1.631,3.386-3.566,3.032C26.995,32.685,26,31.345,26,29.883l0-1.383c0-3.947-2.702-7.28-6.363-8.228 c-0.379-0.098-0.665-0.424-0.726-0.811c-0.266-1.703-1.202-3.189-2.531-4.172C15.3,14.48,13.96,14,12.5,14 c-0.485,0-0.956,0.053-1.41,0.153c-1.554,0.343-2.51,2.04-1.941,3.525c0.674,1.759,0.48,4.127-0.52,6.792 c-0.05,0.15-0.11,0.3-0.18,0.46c-0.03,0.08-0.06,0.16-0.1,0.25c-0.01,0.04-0.03,0.08-0.05,0.12c-0.02,0.04-0.03,0.08-0.04,0.13 c-0.8,2.156-1.238,4.475-1.259,6.89c-0.093,10.779,8.459,19.987,19.218,20.641C38.119,53.685,48,44.244,48,32.5 c0-0.23,0-0.45-0.02-0.67c0.01,0,0.01,0,0.01,0V31.82z"/></svg>