<svg xmlns="http://www.w3.org/2000/svg" xmlns:xlink="http://www.w3.org/1999/xlink" viewBox="0 0 128 128"><path fill="#fff" d="M96,119H32c-5.5,0-10-4.5-10-10V19c0-5.5,4.5-10,10-10h64c5.5,0,10,4.5,10,10v90C106,114.5,101.5,119,96,119z"/><path fill="#e9eef4" d="M86 62H42c-1.7 0-3-1.3-3-3s1.3-3 3-3h44c1.7 0 3 1.3 3 3S87.7 62 86 62zM76 32H52c-1.7 0-3-1.3-3-3s1.3-3 3-3h24c1.7 0 3 1.3 3 3S77.7 32 76 32zM86 77H42c-1.7 0-3-1.3-3-3s1.3-3 3-3h44c1.7 0 3 1.3 3 3S87.7 77 86 77zM70 92H42c-1.7 0-3-1.3-3-3s1.3-3 3-3h28c1.7 0 3 1.3 3 3S71.7 92 70 92z"/><path fill="#1fd4af" d="M106 82A20 20 0 1 0 106 122A20 20 0 1 0 106 82Z"/><path fill="#fff" d="M119.5,87.3l-13.4,15l-4.8-6.2c-1-1.3-2.9-1.5-4.2-0.5c-1.3,1-1.5,2.9-0.5,4.2l7,9c0.5,0.7,1.4,1.1,2.3,1.2c0,0,0.1,0,0.1,0c0.9,0,1.7-0.4,2.2-1l15.1-17C122.3,90.3,121,88.7,119.5,87.3z"/><g><path fill="#444b54" d="M32,122h51c1.7,0,3-1.3,3-3s-1.3-3-3-3H32c-3.9,0-7-3.1-7-7V19c0-3.9,3.1-7,7-7h64c1.9,0,3.6,0.7,5,2.1c1.3,1.3,2,3.1,2,5l-0.1,53c0,1.7,1.3,3,3,3c0,0,0,0,0,0c1.7,0,3-1.3,3-3l0.1-53c0-3.5-1.3-6.7-3.8-9.2C102.7,7.4,99.5,6,96,6H32c-7.2,0-13,5.8-13,13v90C19,116.2,24.8,122,32,122z"/></g></svg>