<svg xmlns="http://www.w3.org/2000/svg" xmlns:xlink="http://www.w3.org/1999/xlink" viewBox="0 0 128 128"><path fill="#fff" d="M94,16.5H34c-2.8,0-5,2.2-5,5v40h70v-40C99,18.7,96.8,16.5,94,16.5z"/><path fill="#c3dbea" d="M85.5,51.5H29v7h56.5c1.9,0,3.5-1.6,3.5-3.5v0C89,53.1,87.4,51.5,85.5,51.5z"/><path fill="#444b54" d="M99,54.5c-1.7,0-3-1.3-3-3v-30c0-1.1-0.9-2-2-2H34c-1.1,0-2,0.9-2,2v30c0,1.7-1.3,3-3,3s-3-1.3-3-3v-30c0-4.4,3.6-8,8-8h60c4.4,0,8,3.6,8,8v30C102,53.2,100.7,54.5,99,54.5z"/><path fill="#6dc289" d="M99,61.5H29c-5.5,0-10,4.5-10,10v40h90v-40C109,66,104.5,61.5,99,61.5z"/><path fill="#47a66a" d="M96,102.5H19v6h77c1.7,0,3-1.3,3-3l0,0C99,103.8,97.7,102.5,96,102.5z"/><path fill="#fff" d="M29 68.5A3 3 0 1 0 29 74.5 3 3 0 1 0 29 68.5zM39 68.5A3 3 0 1 0 39 74.5 3 3 0 1 0 39 68.5zM49 68.5A3 3 0 1 0 49 74.5 3 3 0 1 0 49 68.5zM59 68.5A3 3 0 1 0 59 74.5 3 3 0 1 0 59 68.5zM69 68.5A3 3 0 1 0 69 74.5 3 3 0 1 0 69 68.5zM79 68.5A3 3 0 1 0 79 74.5 3 3 0 1 0 79 68.5zM89 68.5A3 3 0 1 0 89 74.5 3 3 0 1 0 89 68.5zM99 68.5A3 3 0 1 0 99 74.5 3 3 0 1 0 99 68.5z"/><g><path fill="#fff" d="M34 76.5A3 3 0 1 0 34 82.5 3 3 0 1 0 34 76.5zM44 76.5A3 3 0 1 0 44 82.5 3 3 0 1 0 44 76.5zM54 76.5A3 3 0 1 0 54 82.5 3 3 0 1 0 54 76.5zM64 76.5A3 3 0 1 0 64 82.5 3 3 0 1 0 64 76.5zM74 76.5A3 3 0 1 0 74 82.5 3 3 0 1 0 74 76.5zM84 76.5A3 3 0 1 0 84 82.5 3 3 0 1 0 84 76.5zM94 76.5A3 3 0 1 0 94 82.5 3 3 0 1 0 94 76.5z"/></g><g><path fill="#fff" d="M29 84.5A3 3 0 1 0 29 90.5 3 3 0 1 0 29 84.5zM39 84.5A3 3 0 1 0 39 90.5 3 3 0 1 0 39 84.5zM49 84.5A3 3 0 1 0 49 90.5 3 3 0 1 0 49 84.5zM59 84.5A3 3 0 1 0 59 90.5 3 3 0 1 0 59 84.5zM69 84.5A3 3 0 1 0 69 90.5 3 3 0 1 0 69 84.5zM79 84.5A3 3 0 1 0 79 90.5 3 3 0 1 0 79 84.5zM89 84.5A3 3 0 1 0 89 90.5 3 3 0 1 0 89 84.5zM99 84.5A3 3 0 1 0 99 90.5 3 3 0 1 0 99 84.5z"/></g><g><path fill="#444b54" d="M109,114.5H19c-1.7,0-3-1.3-3-3v-12c0-1.7,1.3-3,3-3s3,1.3,3,3v9h84v-9c0-1.7,1.3-3,3-3s3,1.3,3,3v12C112,113.2,110.7,114.5,109,114.5z"/></g><g><path fill="#444b54" d="M109,74.5c-1.7,0-3-1.3-3-3c0-3.9-3.1-7-7-7H29c-3.9,0-7,3.1-7,7c0,1.7-1.3,3-3,3s-3-1.3-3-3c0-7.2,5.8-13,13-13h70c7.2,0,13,5.8,13,13C112,73.2,110.7,74.5,109,74.5z"/></g><g><path fill="#444b54" d="M13,93.5c-1.7,0-3-1.3-3-3v-10c0-1.7,1.3-3,3-3s3,1.3,3,3v10C16,92.2,14.7,93.5,13,93.5z"/></g><g><path fill="#444b54" d="M115,94.5c-1.7,0-3-1.3-3-3v-10c0-1.7,1.3-3,3-3s3,1.3,3,3v10C118,93.2,116.7,94.5,115,94.5z"/></g></svg>