<svg xmlns="http://www.w3.org/2000/svg" xmlns:xlink="http://www.w3.org/1999/xlink" viewBox="0 0 48 48"><radialGradient id="_wXmwjLRgWCyUTMY3_U~wa" cx="25.719" cy="24.341" r="21.828" gradientTransform="rotate(-45.001 20.479 24)" gradientUnits="userSpaceOnUse"><stop offset="0" stop-color="#ffe16e"/><stop offset=".629" stop-color="#ffd226"/><stop offset=".75" stop-color="#fdcd23"/><stop offset=".899" stop-color="#f6bd1b"/><stop offset=".999" stop-color="#f0af13"/></radialGradient><path fill="url(#_wXmwjLRgWCyUTMY3_U~wa)" d="M40.224,7.099c-2.299,0.943-2.951,3.759-3.193,6.232c0,0-0.348,2.78-0.632,4.024c-0.68,2.985-2.778,1.331-3.779,0.343c0,0-10.411-9.762-10.503-9.85c-0.747-0.786-1.701-1.267-2.553-1.286c-0.532-0.012-0.992,0.154-1.331,0.479c-0.896,0.922-0.639,2.603,0.613,3.919l9.08,10.229C23.14,16.609,15.211,9.048,15.152,8.991c-1.302-1.283-3.016-1.588-3.908-0.696c-0.002,0.002-0.004,0.004-0.007,0.007c-0.33,0.335-0.503,0.793-0.5,1.325c0.006,0.853,0.47,1.816,1.221,2.554l11.716,13.226C19.69,21.699,12.17,14.743,12.076,14.655c-1.316-1.251-3.025-1.533-3.908-0.649c-0.008,0.008-0.015,0.015-0.023,0.023c-0.326,0.339-0.492,0.8-0.48,1.332c0.019,0.851,0.5,1.806,1.274,2.543l11.837,11.979c-2.514-2.116-8.93-7.403-9.006-7.468c-1.388-1.193-3.109-1.389-3.968-0.445c-0.312,0.353-0.459,0.818-0.424,1.348c0.057,0.847,0.584,1.775,1.377,2.455c0,0,7.452,7.741,8.318,8.84c0.928,1.178,1.954,2.332,3.053,3.425c2.458,2.445,5.162,4.496,7.819,5.932c2.683,1.449,6.072,0.955,8.242-1.204l7.782-7.755c1.919-2.094,2.71-5.528,2.065-8.961c-0.039-0.205-3.046-17.38-3.046-17.38C42.795,7.373,41.437,6.601,40.224,7.099z"/><linearGradient id="_wXmwjLRgWCyUTMY3_U~wb" x1="-771.446" x2="-765.735" y1="-225.156" y2="-225.156" gradientTransform="matrix(-.8893 .0278 .0312 .9995 -636.56 260.64)" gradientUnits="userSpaceOnUse"><stop offset="0" stop-color="#ffd844"/><stop offset=".539" stop-color="#f0af13"/><stop offset=".999" stop-color="#ffd94a"/></linearGradient><radialGradient id="_wXmwjLRgWCyUTMY3_U~wc" cx="-668.599" cy="-160.256" r="4.385" gradientTransform="matrix(-1.1364 .084 .1189 1.6093 -702.166 342.296)" gradientUnits="userSpaceOnUse"><stop offset=".425" stop-color="#ffe16e"/><stop offset="1" stop-color="#ffe16e" stop-opacity="0"/></radialGradient><path fill="url(#_wXmwjLRgWCyUTMY3_U~wc)" d="M33.011,28.655c0.327,4.431,3.076,7.839,6.14,7.613c3.064-0.226,5.282-4.002,4.954-8.433s-3.076-7.839-6.14-7.613S32.683,24.224,33.011,28.655z" opacity=".49"/><radialGradient id="_wXmwjLRgWCyUTMY3_U~wd" cx="-926.987" cy="231.629" r="4.385" gradientTransform="matrix(-.3908 .9047 1.4327 .6188 -664.943 733.832)" gradientUnits="userSpaceOnUse"><stop offset=".425" stop-color="#ffe16e"/><stop offset="1" stop-color="#ffe16e" stop-opacity="0"/></radialGradient><path fill="url(#_wXmwjLRgWCyUTMY3_U~wd)" d="M27.265,42.916c3.945,1.704,7.997,1.108,9.05-1.331c1.054-2.439-1.29-5.798-5.235-7.502c-3.945-1.704-7.997-1.108-9.05,1.331S23.32,41.212,27.265,42.916z" opacity=".37"/><radialGradient id="_wXmwjLRgWCyUTMY3_U~we" cx="-1441.561" cy="89.886" r="4.385" gradientTransform="matrix(-.3455 .328 1.462 1.5401 -610.312 350.761)" gradientUnits="userSpaceOnUse"><stop offset=".425" stop-color="#ffe16e"/><stop offset="1" stop-color="#ffe16e" stop-opacity="0"/></radialGradient><path fill="url(#_wXmwjLRgWCyUTMY3_U~we)" d="M17.47,17.992c4.025,4.24,8.044,6.961,8.975,6.077c0.931-0.884-1.577-5.039-5.602-9.279s-8.044-6.961-8.975-6.077C10.936,9.597,13.445,13.751,17.47,17.992z" opacity=".58"/><radialGradient id="_wXmwjLRgWCyUTMY3_U~wf" cx="-1479.367" cy="98.487" r="4.385" gradientTransform="matrix(-.3179 .3179 1.4524 1.4524 -597.755 348.573)" gradientUnits="userSpaceOnUse"><stop offset=".425" stop-color="#ffe16e"/><stop offset="1" stop-color="#ffe16e" stop-opacity="0"/></radialGradient><path fill="url(#_wXmwjLRgWCyUTMY3_U~wf)" d="M14.058,22.841c3.999,3.999,7.936,6.546,8.793,5.689s-1.69-4.794-5.689-8.793s-7.936-6.546-8.793-5.689S10.059,18.842,14.058,22.841z" opacity=".35"/><radialGradient id="_wXmwjLRgWCyUTMY3_U~wg" cx="-1482.725" cy="96.76" r="4.385" gradientTransform="matrix(-.3019 .3304 1.1365 1.0384 -543.787 416.922)" gradientUnits="userSpaceOnUse"><stop offset=".425" stop-color="#ffe16e"/><stop offset="1" stop-color="#ffe16e" stop-opacity="0"/></radialGradient><path fill="url(#_wXmwjLRgWCyUTMY3_U~wg)" d="M12.396,29.057c3.129,2.859,6.326,4.455,7.14,3.564c0.814-0.891-1.063-3.931-4.192-6.79s-6.326-4.455-7.14-3.564S9.267,26.197,12.396,29.057z" opacity=".36"/><radialGradient id="_wXmwjLRgWCyUTMY3_U~wh" cx="-1563.676" cy="63.252" r="4.385" gradientTransform="matrix(-.3055 .29 1.1681 1.2305 -526.033 390.052)" gradientUnits="userSpaceOnUse"><stop offset=".425" stop-color="#ffe16e"/><stop offset="1" stop-color="#ffe16e" stop-opacity="0"/></radialGradient><path fill="url(#_wXmwjLRgWCyUTMY3_U~wh)" d="M23.993,15.889c3.216,3.388,6.491,5.501,7.315,4.719s-1.116-4.162-4.332-7.55s-6.491-5.501-7.315-4.719C18.837,9.12,20.777,12.501,23.993,15.889z" opacity=".56"/><linearGradient id="_wXmwjLRgWCyUTMY3_U~wi" x1="31.177" x2="19.432" y1="18.666" y2="21.922" gradientTransform="rotate(-43.406 32.537 13.43)" gradientUnits="userSpaceOnUse"><stop offset="0" stop-color="#ffdc58" stop-opacity="0"/><stop offset="1" stop-color="#f5c02c"/></linearGradient><path fill="url(#_wXmwjLRgWCyUTMY3_U~wi)" d="M34.664,19.954c0,0-5.46,3.067-7.743,11.028c-0.217,0.835,0.425,1.228,0.79,0.437c0.366-0.79,2.731-7.732,7.343-10.95C35.866,19.814,34.664,19.954,34.664,19.954z"/><linearGradient id="_wXmwjLRgWCyUTMY3_U~wj" x1="11.906" x2="32.491" y1="27.485" y2="27.038" gradientTransform="rotate(-45.001 20.479 24)" gradientUnits="userSpaceOnUse"><stop offset="0" stop-color="#f9c41e"/><stop offset=".605" stop-color="#f6c12d"/><stop offset=".999" stop-color="#ffd532"/></linearGradient><path fill="url(#_wXmwjLRgWCyUTMY3_U~wj)" d="M31.379,17.903c0,0-7.652,3.851-13.899,13.972c-0.63,1.062-0.074,1.569,0.705,0.566c0.78-1.003,6.656-9.825,13.405-13.877C32.82,17.736,31.379,17.903,31.379,17.903z"/><linearGradient id="_wXmwjLRgWCyUTMY3_U~wk" x1="4.248" x2="10.674" y1="26.896" y2="32.896" gradientUnits="userSpaceOnUse"><stop offset="0" stop-color="#f1f7fe" stop-opacity="0"/><stop offset=".52" stop-color="#3c8af0"/><stop offset="1" stop-color="#f1f7fe" stop-opacity="0"/></linearGradient><path fill="url(#_wXmwjLRgWCyUTMY3_U~wk)" d="M10.136,32.529c-0.049,0-0.098-0.007-0.146-0.022c-2.94-0.893-5.078-3.099-5.445-5.62 c-0.04-0.273,0.149-0.527,0.423-0.567c0.287-0.033,0.526,0.15,0.566,0.423c0.313,2.139,2.175,4.026,4.746,4.807 c0.265,0.08,0.414,0.359,0.333,0.624C10.548,32.39,10.35,32.529,10.136,32.529z"/><linearGradient id="_wXmwjLRgWCyUTMY3_U~wl" x1=".792" x2="9.814" y1="27.72" y2="35.719" gradientUnits="userSpaceOnUse"><stop offset="0" stop-color="#f1f7fe" stop-opacity="0"/><stop offset=".52" stop-color="#3c8af0"/><stop offset="1" stop-color="#f1f7fe" stop-opacity="0"/></linearGradient><path fill="url(#_wXmwjLRgWCyUTMY3_U~wl)" d="M9.763,35.904c-0.049,0-0.098-0.007-0.146-0.022c-4.521-1.373-7.807-4.752-8.368-8.61 c-0.04-0.273,0.149-0.527,0.423-0.567c0.289-0.033,0.526,0.15,0.566,0.423c0.507,3.476,3.517,6.537,7.669,7.798 c0.265,0.08,0.414,0.359,0.333,0.624C10.175,35.765,9.977,35.904,9.763,35.904z"/><linearGradient id="_wXmwjLRgWCyUTMY3_U~wm" x1="25.38" x2="30.902" y1="5.756" y2="11.054" gradientUnits="userSpaceOnUse"><stop offset="0" stop-color="#f1f7fe" stop-opacity="0"/><stop offset=".52" stop-color="#3c8af0"/><stop offset="1" stop-color="#f1f7fe" stop-opacity="0"/></linearGradient><path fill="url(#_wXmwjLRgWCyUTMY3_U~wm)" d="M30.628,12.036c-0.214,0-0.412-0.139-0.478-0.355c-0.781-2.571-2.668-4.435-4.808-4.747 c-0.273-0.04-0.463-0.294-0.423-0.567c0.039-0.273,0.297-0.456,0.566-0.423c2.521,0.368,4.728,2.505,5.62,5.446 c0.081,0.264-0.068,0.543-0.333,0.624C30.726,12.029,30.677,12.036,30.628,12.036z"/><g><linearGradient id="_wXmwjLRgWCyUTMY3_U~wn" x1="25.828" x2="34.221" y1="2.45" y2="10.269" gradientUnits="userSpaceOnUse"><stop offset="0" stop-color="#f1f7fe" stop-opacity="0"/><stop offset=".52" stop-color="#3c8af0"/><stop offset="1" stop-color="#f1f7fe" stop-opacity="0"/></linearGradient><path fill="url(#_wXmwjLRgWCyUTMY3_U~wn)" d="M33.937,11.724c-0.214,0-0.412-0.139-0.478-0.355c-1.261-4.152-4.322-7.162-7.798-7.669 c-0.273-0.04-0.463-0.294-0.423-0.567c0.039-0.273,0.295-0.454,0.566-0.423c3.858,0.563,7.238,3.847,8.61,8.368 c0.081,0.264-0.068,0.543-0.333,0.624C34.035,11.716,33.986,11.724,33.937,11.724z"/></g><linearGradient id="_wXmwjLRgWCyUTMY3_U~wo" x1="40.485" x2="31.461" y1="29.933" y2="41.682" gradientTransform="rotate(-45.001 22.66 34.156)" gradientUnits="userSpaceOnUse"><stop offset="0" stop-color="#ffdb53" stop-opacity="0"/><stop offset=".605" stop-color="#f6c02d"/><stop offset=".999" stop-color="#f2b416" stop-opacity=".636"/></linearGradient><path fill="url(#_wXmwjLRgWCyUTMY3_U~wo)" d="M33.273,19.054c-0.868,1.648-1.472,3.514-1.748,5.465c-0.169,1.198-0.217,2.437-0.129,3.654c0.148,2.04,0.682,4.112,1.675,5.918c0.336,0.61,0.732,1.186,1.176,1.722c0.405,0.489,0.902,1.157,1.478,1.451c0.149,0.104,0.32,0.173,0.503,0.173c0.159,0,0.318-0.056,0.427-0.175c0.009-0.01,0.018-0.02,0.026-0.031c0.211-0.27,0.113-0.698-0.243-0.971c-2.914-2.296-4.364-6.826-3.694-11.567c0.275-1.944,0.902-3.789,1.799-5.388L33.273,19.054z"/></svg>